<?xml version="1.0" encoding="iso-8859-1"?>
<!-- Generator: Adobe Illustrator 20.0.0, SVG Export Plug-In . SVG Version: 6.00 Build 0)  -->
<svg version="1.1" id="Layer_1_1_" xmlns="http://www.w3.org/2000/svg" xmlns:xlink="http://www.w3.org/1999/xlink" x="0px" y="0px"
	 viewBox="0 0 64 64" style="enable-background:new 0 0 64 64;" xml:space="preserve">
<g id="Guide">
	<g>
	</g>
	<g>
	</g>
	<g>
	</g>
	<g>
	</g>
	<g>
	</g>
	<g>
	</g>
	<g>
	</g>
	<g>
	</g>
	<g>
	</g>
	<g>
	</g>
	<g>
	</g>
	<g>
	</g>
	<g>
	</g>
	<g>
	</g>
	<g>
	</g>
	<g>
	</g>
	<g>
	</g>
	<g>
	</g>
	<g>
	</g>
	<g>
	</g>
	<g>
	</g>
	<g>
	</g>
	<g>
	</g>
	<g>
	</g>
	<g>
	</g>
	<g>
	</g>
	<g>
	</g>
	<g>
	</g>
	<g>
	</g>
	<g>
	</g>
	<g>
	</g>
	<g>
	</g>
	<g>
	</g>
	<g>
	</g>
	<g>
	</g>
	<g>
	</g>
</g>
<path d="M63,23c0-1.778-0.692-3.45-1.95-4.707c-0.29-0.29-0.712-0.362-1.071-0.222c0.013-1.228-0.321-2.452-0.979-3.53V1
	c0-0.404-0.243-0.77-0.617-0.924C58.259,0.024,58.129,0.009,58,0.009V0H40H28H13c-0.266,0-0.52,0.105-0.707,0.293L0.294,12.292
	C0.113,12.473,0,12.723,0,13v42c0,0.553,0.447,1,1,1h45c0.131,0,0.261-0.027,0.383-0.077c0.123-0.051,0.233-0.125,0.325-0.217
	l11.999-11.999C58.895,43.52,59,43.266,59,43v-5.875c1.13-0.719,2.159-1.527,3.05-2.418C63.308,33.45,64,31.778,64,30
	c0-1.59-0.554-3.096-1.57-4.295C62.804,24.864,63,23.947,63,23z M47.636,29.293l-1,1l-2,2l1.414,1.414l2-2l1-1l2.218-2.218
	C51.744,29.232,52,30.097,52,31c0,1.244-0.484,2.413-1.364,3.293l-1,1l-3,3l1.414,1.414l3-3l1-1l0.218-0.218
	C52.744,36.232,53,37.097,53,38c0,1.244-0.484,2.413-1.364,3.293C48.601,44.328,44.564,46,40.272,46H36c-3.309,0-6-2.691-6-6
	s2.691-6,6-6h1.172c0.263,0,0.515-0.104,0.701-0.287l10.39-10.23C48.743,24.227,49,25.094,49,26
	C49,27.244,48.516,28.413,47.636,29.293z M45.586,12H30.414l10-10h15.172L45.586,12z M37.586,2L27.293,12.293
	C27.105,12.48,27,12.734,27,13v14.132l-1.445-0.964c-0.336-0.225-0.773-0.225-1.109,0L22,27.798l-2.445-1.63
	C19.387,26.056,19.193,26,19,26s-0.387,0.056-0.555,0.168L17,27.132V13.414L28.414,2H37.586z M13.414,2h12.172l-10,10H3.414
	L13.414,2z M2,14h13v15c0,0.369,0.203,0.708,0.528,0.882c0.324,0.174,0.721,0.154,1.026-0.05L19,28.202l2.445,1.63
	c0.336,0.225,0.773,0.225,1.109,0L25,28.202l2.445,1.63C27.612,29.943,27.806,30,28,30c0.162,0,0.324-0.039,0.472-0.118
	C28.797,29.708,29,29.369,29,29V14h16v9.888L36.762,32H36c-4.411,0-8,3.589-8,8s3.589,8,8,8h4.272c1.621,0,3.203-0.23,4.728-0.641
	V54H2V14z M57,42.586l-10,10v-5.884c2.237-0.897,4.294-2.239,6.05-3.995C54.308,41.45,55,39.778,55,38
	c0-1.592-0.558-3.096-1.577-4.296C53.798,32.863,54,31.948,54,31c0-1.778-0.692-3.45-1.95-4.707
	c-0.285-0.285-0.698-0.357-1.053-0.226C50.997,26.045,51,26.023,51,26c0-1.778-0.692-3.45-1.95-4.707
	c-0.389-0.389-1.018-0.39-1.408-0.006L47,21.919v-8.505l10-10v11.39v6.393v0.146v15.233V42.586z M60.636,33.293
	c-0.499,0.499-1.046,0.972-1.636,1.413V21.757l1.268-1.268C60.744,21.232,61,22.097,61,23c0,1.244-0.484,2.413-1.364,3.293
	c-0.391,0.391-0.391,1.023,0,1.414s1.023,0.391,1.414,0c0.003-0.003,0.005-0.005,0.008-0.008l0.21-0.21
	C61.744,28.232,62,29.097,62,30C62,31.244,61.516,32.413,60.636,33.293z"/>
<path d="M36,36c-2.206,0-4,1.794-4,4s1.794,4,4,4s4-1.794,4-4S38.206,36,36,36z M36,42c-1.103,0-2-0.897-2-2s0.897-2,2-2
	s2,0.897,2,2S37.103,42,36,42z"/>
<rect x="7" y="58" width="15" height="2"/>
<rect x="24" y="58" width="2" height="2"/>
<rect x="28" y="58" width="2" height="2"/>
<rect x="32" y="58" width="2" height="2"/>
<rect x="28" y="62" width="15" height="2"/>
<rect x="45" y="62" width="2" height="2"/>
<rect x="49" y="62" width="2" height="2"/>
<rect x="53" y="62" width="2" height="2"/>
<rect x="51" y="57" width="2" height="2"/>
<rect x="55" y="57" width="2" height="2"/>
<rect x="59" y="57" width="2" height="2"/>
</svg>
