<?xml version="1.0" encoding="UTF-8" standalone="no"?> <svg id="Layer_1" data-name="Layer 1" xmlns="http://www.w3.org/2000/svg" viewBox="0 0 512 512"><title>Rush</title><path d="M330.667,74.667c-99.99,0-181.334,81.343-181.334,181.333s81.344,181.333,181.334,181.333S512,355.99,512,256,430.656,74.667,330.667,74.667Zm74.666,202.666H330.667A21.334,21.334,0,0,1,309.333,256V149.333a21.334,21.334,0,0,1,42.667,0v85.334h53.333a21.333,21.333,0,1,1,0,42.666Z"/><path d="M117.333,192H42.667a21.334,21.334,0,1,1,0-42.667h74.666a21.334,21.334,0,1,1,0,42.667Z"/><path d="M106.667,277.333H21.333a21.333,21.333,0,0,1,0-42.666h85.334a21.333,21.333,0,0,1,0,42.666Z"/><path d="M117.333,362.667H74.667a21.334,21.334,0,1,1,0-42.667h42.666a21.334,21.334,0,1,1,0,42.667Z"/></svg>